<?xml version="1.0" encoding="iso-8859-1"?>
<!-- Generator: Adobe Illustrator 16.0.0, SVG Export Plug-In . SVG Version: 6.00 Build 0)  -->
<!DOCTYPE svg PUBLIC "-//W3C//DTD SVG 1.1//EN" "http://www.w3.org/Graphics/SVG/1.1/DTD/svg11.dtd">
<svg version="1.1" id="Capa_1" xmlns="http://www.w3.org/2000/svg" xmlns:xlink="http://www.w3.org/1999/xlink" x="0px" y="0px"
	 width="421.052px" height="421.053px" viewBox="0 0 421.052 421.053" style="enable-background:new 0 0 421.052 421.053;"
	 xml:space="preserve">
<g>
	<path d="M296.264,85.735c-33.183,0-63.365,13.045-85.738,34.236c-22.374-21.196-52.552-34.236-85.734-34.236
		C55.98,85.735,0,141.717,0,210.529c0,68.805,55.98,124.788,124.792,124.788c33.182,0,63.36-13.042,85.734-34.235
		c22.373,21.197,52.556,34.235,85.738,34.235c68.805,0,124.788-55.983,124.788-124.788
		C421.052,141.717,365.069,85.735,296.264,85.735z M124.792,324.111c-62.636,0-113.586-50.96-113.586-113.582
		c0-62.63,50.955-113.587,113.586-113.587c30.161,0,57.545,11.896,77.896,31.144c-19.41,22.003-31.223,50.868-31.223,82.444
		c0,31.585,11.813,60.445,31.223,82.452C182.337,312.215,154.953,324.111,124.792,324.111z M182.671,210.529
		c0-28.405,10.559-54.351,27.855-74.285c17.294,19.934,27.855,45.879,27.855,74.285c0,28.399-10.562,54.348-27.855,74.276
		C193.23,264.877,182.671,238.929,182.671,210.529z M296.264,324.111c-30.162,0-57.548-11.896-77.899-31.141
		c19.409-22.009,31.223-50.868,31.223-82.452c0-31.579-11.813-60.441-31.223-82.444c20.356-19.248,47.737-31.144,77.899-31.144
		c62.632,0,113.582,50.955,113.582,113.588C409.846,273.141,358.896,324.111,296.264,324.111z M25.225,178.083l-3.962-3.962
		l69.423-69.426l3.962,3.962L25.225,178.083z M20.322,209.483l-3.962-3.96l102.518-102.524l3.962,3.962L20.322,209.483z
		 M170.282,201.583L67.765,304.111l-3.963-3.962l102.519-102.526L170.282,201.583z M170.282,232.347l-80.188,80.202l-3.962-3.962
		l80.195-80.203L170.282,232.347z M107.554,315.269l65.081-65.089l3.962,3.963l-65.081,65.088L107.554,315.269z M133.699,317.616
		l48.827-48.838l3.962,3.962l-48.828,48.838L133.699,317.616z M146.06,110.143L20.746,235.462l-3.96-3.964l125.313-125.317
		L146.06,110.143z M166.989,115.164L28.027,254.143l-3.962-3.963l138.968-138.978L166.989,115.164z M187.889,123.456L37.02,274.322
		l-3.962-3.963l150.869-150.865L187.889,123.456z M173.057,168.154L50.205,290.995l-3.961-3.962L169.09,164.187L173.057,168.154z"/>
</g>
<g>
</g>
<g>
</g>
<g>
</g>
<g>
</g>
<g>
</g>
<g>
</g>
<g>
</g>
<g>
</g>
<g>
</g>
<g>
</g>
<g>
</g>
<g>
</g>
<g>
</g>
<g>
</g>
<g>
</g>
</svg>
