<?xml version="1.0" encoding="iso-8859-1"?>
<!-- Generator: Adobe Illustrator 19.0.0, SVG Export Plug-In . SVG Version: 6.00 Build 0)  -->
<svg version="1.1" id="Capa_1" xmlns="http://www.w3.org/2000/svg" xmlns:xlink="http://www.w3.org/1999/xlink" x="0px" y="0px"
	 viewBox="0 0 512 512" style="enable-background:new 0 0 512 512;" xml:space="preserve">
<g>
	<polygon style="fill:#E57E25;" points="370.759,176.552 352.221,203.034 327.503,238.345 315.145,256 302.786,273.655 
		290.428,291.31 265.71,326.621 247.172,353.103 247.172,476.69 194.207,512 194.207,353.103 70.621,176.552 70.621,158.897 
		370.759,158.897 	"/>
	<path style="fill:#4482C3;" d="M176.552,88.276v70.621H88.276V88.276c-0.003-9.366,3.717-18.349,10.339-24.971
		c6.623-6.623,15.605-10.342,24.971-10.339h17.655c9.366-0.003,18.349,3.717,24.971,10.339
		C172.835,69.927,176.554,78.91,176.552,88.276z"/>
	<circle style="fill:#A5A5A4;" cx="132.414" cy="26.483" r="26.483"/>
	<path style="fill:#3B97D3;" d="M264.828,88.276v70.621h-88.276V88.276c-0.003-9.366,3.717-18.349,10.339-24.971
		c6.623-6.623,15.605-10.342,24.971-10.339h17.655c9.366-0.003,18.349,3.717,24.971,10.339
		C261.111,69.927,264.83,78.91,264.828,88.276z"/>
	<circle style="fill:#A5A5A4;" cx="220.69" cy="26.483" r="26.483"/>
	<path style="fill:#2980BA;" d="M220.69,97.103v61.793h-17.655V97.103c0-4.875,3.952-8.828,8.828-8.828
		C216.737,88.276,220.69,92.228,220.69,97.103z"/>
	<path style="fill:#4482C3;" d="M353.103,88.276v70.621h-88.276V88.276c-0.003-9.366,3.717-18.349,10.339-24.971
		c6.623-6.623,15.605-10.342,24.971-10.339h17.655c9.366-0.003,18.349,3.717,24.971,10.339
		C349.387,69.927,353.106,78.91,353.103,88.276z"/>
	<circle style="fill:#A5A5A4;" cx="308.966" cy="26.483" r="26.483"/>
	<g>
		<path style="fill:#285680;" d="M132.414,97.103v61.793h-17.655V97.103c0-4.875,3.952-8.828,8.828-8.828
			C128.462,88.276,132.414,92.228,132.414,97.103z"/>
		<path style="fill:#285680;" d="M308.966,97.103v61.793H291.31V97.103c0-4.875,3.952-8.828,8.828-8.828
			S308.966,92.228,308.966,97.103z"/>
	</g>
	<g>
		<path style="fill:#F18D46;" d="M70.621,141.241h300.138c9.751,0,17.655,7.904,17.655,17.655l0,0
			c0,9.751-7.904,17.655-17.655,17.655H70.621c-9.751,0-17.655-7.904-17.655-17.655l0,0
			C52.966,149.146,60.87,141.241,70.621,141.241z"/>
		<path style="fill:#F18D46;" d="M352.221,203.034l-12.359,17.655h-75.034c-4.875,0-8.828-3.952-8.828-8.828
			c0-4.875,3.952-8.828,8.828-8.828H352.221z"/>
		<path style="fill:#F18D46;" d="M327.503,238.345L315.145,256h-67.972c-4.875,0-8.828-3.952-8.828-8.828s3.952-8.828,8.828-8.828
			H327.503z"/>
		<path style="fill:#F18D46;" d="M302.786,273.655l-12.359,17.655h-60.91c-4.875,0-8.828-3.952-8.828-8.828s3.952-8.828,8.828-8.828
			H302.786z"/>
		<path style="fill:#F18D46;" d="M278.069,308.966l-12.359,17.655h-53.848c-4.875,0-8.828-3.952-8.828-8.828
			s3.952-8.828,8.828-8.828H278.069z"/>
	</g>
	<polygon style="fill:#46B29D;" points="106.108,456.563 26.836,370.759 52.789,346.748 132.061,432.552 143.448,435.023 
		310.378,362.461 329.622,344.982 329.622,344.894 447.206,132.414 476.69,152.011 360.43,362.196 324.414,394.77 157.484,467.332 	
		"/>
	<g>
		<circle style="fill:#4482C3;" cx="132.414" cy="459.034" r="26.483"/>
		<circle style="fill:#4482C3;" cx="335.448" cy="370.759" r="26.483"/>
		<polygon style="fill:#4482C3;" points="414.897,123.586 494.345,176.552 512,61.793 		"/>
		<circle style="fill:#4482C3;" cx="26.483" cy="344.276" r="26.483"/>
	</g>
</g>
<g>
</g>
<g>
</g>
<g>
</g>
<g>
</g>
<g>
</g>
<g>
</g>
<g>
</g>
<g>
</g>
<g>
</g>
<g>
</g>
<g>
</g>
<g>
</g>
<g>
</g>
<g>
</g>
<g>
</g>
</svg>
